# MagicaVoxel @ Ephtracy

# group
g platform

# material
mtllib platform.mtl
usemtl palette

# normals
vn -1 0 0
vn 1 0 0
vn 0 0 1
vn 0 0 -1
vn 0 -1 0
vn 0 1 0

# texcoords
vt 0.564453 0.5
vt 0.583984 0.5

# verts
v -5 0 5
v -5 0 -5
v -5 2 5
v -5 2 -5
v 5 0 5
v 5 0 -5
v 5 2 5
v 5 2 -5
v -5 0 5
v -5 2 5
v -4 1 5
v -4 2 5
v -3 0 5
v -3 1 5
v -3 2 5
v -2 0 5
v -2 1 5
v 0 0 5
v 0 1 5
v 1 0 5
v 1 1 5
v 1 2 5
v 2 1 5
v 2 2 5
v 3 0 5
v 3 2 5
v 4 0 5
v 4 2 5
v 5 0 5
v 5 2 5
v -5 0 -5
v -5 2 -5
v 5 0 -5
v 5 2 -5
v -5 0 5
v -3 0 5
v -2 0 5
v 0 0 5
v 1 0 5
v 3 0 5
v 4 0 5
v 5 0 5
v -3 0 4
v -2 0 4
v 0 0 4
v 1 0 4
v 3 0 4
v 4 0 4
v -5 0 -5
v 5 0 -5
v -5 2 5
v -4 2 5
v -3 2 5
v 1 2 5
v 2 2 5
v 3 2 5
v 4 2 5
v 5 2 5
v -4 2 4
v -3 2 4
v 1 2 4
v 2 2 4
v 3 2 4
v 4 2 4
v -5 2 -5
v 5 2 -5

# faces
f 3/2/1 2/2/1 1/2/1
f 4/2/1 2/2/1 3/2/1
f 5/2/2 6/2/2 7/2/2
f 7/2/2 6/2/2 8/2/2
f 11/2/3 10/2/3 9/2/3
f 12/2/3 10/2/3 11/2/3
f 13/2/3 11/2/3 9/2/3
f 14/1/3 12/1/3 11/1/3
f 14/2/3 11/2/3 13/2/3
f 15/1/3 12/1/3 14/1/3
f 16/1/3 14/1/3 13/1/3
f 17/2/3 15/2/3 14/2/3
f 17/1/3 14/1/3 16/1/3
f 18/2/3 17/2/3 16/2/3
f 19/2/3 15/2/3 17/2/3
f 19/2/3 17/2/3 18/2/3
f 20/1/3 19/1/3 18/1/3
f 21/2/3 15/2/3 19/2/3
f 21/1/3 19/1/3 20/1/3
f 22/2/3 15/2/3 21/2/3
f 23/2/3 21/2/3 20/2/3
f 23/1/3 22/1/3 21/1/3
f 24/1/3 22/1/3 23/1/3
f 25/2/3 23/2/3 20/2/3
f 25/2/3 24/2/3 23/2/3
f 26/2/3 24/2/3 25/2/3
f 27/1/3 26/1/3 25/1/3
f 28/1/3 26/1/3 27/1/3
f 29/2/3 28/2/3 27/2/3
f 30/2/3 28/2/3 29/2/3
f 31/2/4 32/2/4 33/2/4
f 33/2/4 32/2/4 34/2/4
f 43/2/5 36/2/5 35/2/5
f 43/1/5 37/1/5 36/1/5
f 44/2/5 38/2/5 37/2/5
f 44/1/5 37/1/5 43/1/5
f 45/1/5 39/1/5 38/1/5
f 45/2/5 38/2/5 44/2/5
f 46/2/5 40/2/5 39/2/5
f 46/1/5 39/1/5 45/1/5
f 47/1/5 41/1/5 40/1/5
f 47/2/5 40/2/5 46/2/5
f 48/2/5 42/2/5 41/2/5
f 48/1/5 41/1/5 47/1/5
f 49/2/5 47/2/5 46/2/5
f 49/2/5 46/2/5 45/2/5
f 49/2/5 48/2/5 47/2/5
f 49/2/5 45/2/5 44/2/5
f 49/2/5 44/2/5 43/2/5
f 49/2/5 43/2/5 35/2/5
f 50/2/5 42/2/5 48/2/5
f 50/2/5 48/2/5 49/2/5
f 51/2/6 52/2/6 59/2/6
f 52/1/6 53/1/6 59/1/6
f 53/2/6 54/2/6 60/2/6
f 59/1/6 53/1/6 60/1/6
f 54/1/6 55/1/6 61/1/6
f 60/2/6 54/2/6 61/2/6
f 55/2/6 56/2/6 62/2/6
f 61/1/6 55/1/6 62/1/6
f 56/1/6 57/1/6 63/1/6
f 62/2/6 56/2/6 63/2/6
f 57/2/6 58/2/6 64/2/6
f 63/1/6 57/1/6 64/1/6
f 62/2/6 63/2/6 65/2/6
f 61/2/6 62/2/6 65/2/6
f 63/2/6 64/2/6 65/2/6
f 60/2/6 61/2/6 65/2/6
f 59/2/6 60/2/6 65/2/6
f 51/2/6 59/2/6 65/2/6
f 64/2/6 58/2/6 66/2/6
f 65/2/6 64/2/6 66/2/6
